<svg xmlns="http://www.w3.org/2000/svg" width="21" height="20" viewBox="0 0 21 20" fill="none">
<path d="M10.4999 8.18188V12.0546H15.8817C15.6454 13.3001 14.9362 14.3547 13.8726 15.0637L17.118 17.5819C19.0089 15.8365 20.0998 13.2729 20.0998 10.2274C20.0998 9.51836 20.0362 8.83648 19.918 8.18199L10.4999 8.18188Z" fill="#4285F4"/>
<path d="M4.89555 11.9033L4.16358 12.4636L1.57263 14.4818C3.21808 17.7454 6.59056 20 10.4996 20C13.1996 20 15.4632 19.1091 17.1177 17.5818L13.8723 15.0636C12.9814 15.6636 11.845 16.0273 10.4996 16.0273C7.89963 16.0273 5.69061 14.2728 4.89964 11.9091L4.89555 11.9033Z" fill="#34A853"/>
<path d="M1.57265 5.51807C0.890868 6.86347 0.5 8.38167 0.5 9.99982C0.5 11.618 0.890868 13.1362 1.57265 14.4816C1.57265 14.4906 4.89998 11.8998 4.89998 11.8998C4.69998 11.2998 4.58177 10.6634 4.58177 9.99972C4.58177 9.336 4.69998 8.69967 4.89998 8.09968L1.57265 5.51807Z" fill="#FBBC05"/>
<path d="M10.4998 3.98182C11.9726 3.98182 13.2816 4.49089 14.3271 5.47272L17.1907 2.60912C15.4543 0.990971 13.1999 0 10.4998 0C6.59076 0 3.21808 2.24545 1.57263 5.51819L4.89986 8.10001C5.69072 5.73635 7.89984 3.98182 10.4998 3.98182Z" fill="#EA4335"/>
</svg>