<svg xmlns="http://www.w3.org/2000/svg" width="25" height="24" viewBox="0 0 25 24" fill="none">
<path d="M10.3625 11.25H3.98755C3.54 11.25 3.11077 11.0722 2.79431 10.7557C2.47784 10.4393 2.30005 10.0101 2.30005 9.5625V3.1875C2.30005 2.73995 2.47784 2.31072 2.79431 1.99426C3.11077 1.67779 3.54 1.5 3.98755 1.5H10.3625C10.8101 1.5 11.2393 1.67779 11.5558 1.99426C11.8723 2.31072 12.05 2.73995 12.05 3.1875V9.5625C12.05 10.0101 11.8723 10.4393 11.5558 10.7557C11.2393 11.0722 10.8101 11.25 10.3625 11.25Z" fill="currentColor"/>
<path d="M21.6125 11.25H15.2375C14.79 11.25 14.3608 11.0722 14.0443 10.7557C13.7278 10.4393 13.55 10.0101 13.55 9.5625V3.1875C13.55 2.73995 13.7278 2.31072 14.0443 1.99426C14.3608 1.67779 14.79 1.5 15.2375 1.5H21.6125C22.0601 1.5 22.4893 1.67779 22.8058 1.99426C23.1223 2.31072 23.3 2.73995 23.3 3.1875V9.5625C23.3 10.0101 23.1223 10.4393 22.8058 10.7557C22.4893 11.0722 22.0601 11.25 21.6125 11.25Z" fill="currentColor"/>
<path d="M10.3625 22.5H3.98755C3.54 22.5 3.11077 22.3222 2.79431 22.0057C2.47784 21.6893 2.30005 21.2601 2.30005 20.8125V14.4375C2.30005 13.9899 2.47784 13.5607 2.79431 13.2443C3.11077 12.9278 3.54 12.75 3.98755 12.75H10.3625C10.8101 12.75 11.2393 12.9278 11.5558 13.2443C11.8723 13.5607 12.05 13.9899 12.05 14.4375V20.8125C12.05 21.2601 11.8723 21.6893 11.5558 22.0057C11.2393 22.3222 10.8101 22.5 10.3625 22.5Z" fill="currentColor"/>
<path d="M21.6125 22.5H15.2375C14.79 22.5 14.3608 22.3222 14.0443 22.0057C13.7278 21.6893 13.55 21.2601 13.55 20.8125V14.4375C13.55 13.9899 13.7278 13.5607 14.0443 13.2443C14.3608 12.9278 14.79 12.75 15.2375 12.75H21.6125C22.0601 12.75 22.4893 12.9278 22.8058 13.2443C23.1223 13.5607 23.3 13.9899 23.3 14.4375V20.8125C23.3 21.2601 23.1223 21.6893 22.8058 22.0057C22.4893 22.3222 22.0601 22.5 21.6125 22.5Z" fill="currentColor"/>
</svg>