<svg xmlns="http://www.w3.org/2000/svg" width="25" height="24" viewBox="0 0 25 24" fill="none">
<path d="M12.3361 2.25017C6.85262 2.17611 2.37606 6.65267 2.45012 12.1361C2.52325 17.395 6.80528 21.677 12.0642 21.7502C17.5486 21.8252 22.0242 17.3486 21.9492 11.8652C21.877 6.60533 17.595 2.3233 12.3361 2.25017ZM18.262 17.59C18.2433 17.6102 18.2204 17.626 18.195 17.6364C18.1695 17.6468 18.142 17.6514 18.1146 17.65C18.0871 17.6485 18.0603 17.6411 18.036 17.6281C18.0118 17.6152 17.9907 17.597 17.9742 17.575C17.5549 17.0265 17.0415 16.5568 16.4578 16.188C15.2643 15.422 13.7522 15.0002 12.2001 15.0002C10.6481 15.0002 9.13591 15.422 7.94247 16.188C7.35881 16.5566 6.84536 17.0261 6.42606 17.5745C6.40959 17.5966 6.38847 17.6147 6.36421 17.6277C6.33995 17.6406 6.31314 17.6481 6.28567 17.6495C6.25821 17.6509 6.23076 17.6463 6.20528 17.6359C6.17981 17.6256 6.15692 17.6097 6.13825 17.5895C4.76278 16.1047 3.98364 14.1645 3.95012 12.1408C3.87372 7.57939 7.61669 3.76142 12.18 3.75017C16.7432 3.73892 20.4501 7.44439 20.4501 12.0002C20.4517 14.0727 19.6701 16.0693 18.262 17.59Z" fill="currentColor"/>
<path d="M12.2001 6.75017C11.2757 6.75017 10.44 7.09658 9.84606 7.72611C9.25216 8.35564 8.95544 9.22611 9.02247 10.1603C9.15841 12.0002 10.5839 13.5002 12.2001 13.5002C13.8164 13.5002 15.239 12.0002 15.3778 10.1608C15.4472 9.23549 15.1528 8.37299 14.549 7.73174C13.9528 7.09892 13.1184 6.75017 12.2001 6.75017Z" fill="currentColor"/>
</svg>