<svg xmlns="http://www.w3.org/2000/svg" width="25" height="24" viewBox="0 0 25 24" fill="none">
  <path fill-rule="evenodd" clip-rule="evenodd" d="M16.3496 6.75C16.3496 6.33579 16.6854 6 17.0996 6H22.3496C22.7638 6 23.0996 6.33579 23.0996 6.75V12C23.0996 12.4142 22.7638 12.75 22.3496 12.75C21.9354 12.75 21.5996 12.4142 21.5996 12V8.56066L15.6908 14.4695C15.6908 14.4695 15.6907 14.4695 15.6907 14.4695C15.4818 14.6785 15.2338 14.8443 14.9608 14.9574C14.6877 15.0705 14.3951 15.1287 14.0996 15.1287C13.8041 15.1287 13.5115 15.0705 13.2385 14.9574C12.9654 14.8443 12.7174 14.6785 12.5084 14.4695L10.1301 12.0911L10.13 12.0911C10.0604 12.0214 9.97767 11.9661 9.88666 11.9284C9.79566 11.8907 9.69812 11.8713 9.59961 11.8713C9.5011 11.8713 9.40356 11.8907 9.31256 11.9284C9.22155 11.9661 9.13886 12.0214 9.06922 12.0911L9.06916 12.0911L3.37994 17.7803C3.08705 18.0732 2.61217 18.0732 2.31928 17.7803C2.02639 17.4874 2.02639 17.0126 2.31928 16.7197L8.00844 11.0305C8.21738 10.8215 8.46544 10.6557 8.73845 10.5426C9.01147 10.4295 9.30409 10.3713 9.59961 10.3713C9.89513 10.3713 10.1877 10.4295 10.4608 10.5426C10.7338 10.6557 10.9818 10.8215 11.1908 11.0305L13.5692 13.4089L13.5692 13.4089C13.6389 13.4786 13.7216 13.5339 13.8126 13.5716C13.9036 13.6093 14.0011 13.6287 14.0996 13.6287C14.1981 13.6287 14.2957 13.6093 14.3867 13.5716C14.4777 13.5339 14.5604 13.4786 14.63 13.4089L14.6301 13.4089L20.5389 7.5H17.0996C16.6854 7.5 16.3496 7.16421 16.3496 6.75Z" fill="currentColor"/>
</svg>