<svg xmlns="http://www.w3.org/2000/svg" width="21" height="20" viewBox="0 0 21 20" fill="none">
  <path d="M14.8138 7.21964C16.0999 8.14228 17.6754 8.68515 19.3771 8.68515V5.39892C19.0551 5.39899 18.7339 5.36529 18.4188 5.2983V7.88502C16.7172 7.88502 15.1419 7.34216 13.8554 6.41958V13.1258C13.8554 16.4806 11.1455 19.2 7.80282 19.2C6.55559 19.2 5.39634 18.8216 4.43335 18.1726C5.53244 19.3004 7.06521 20.0001 8.76095 20.0001C12.1038 20.0001 14.8139 17.2807 14.8139 13.9257V7.21964H14.8138V7.21964ZM15.996 3.90424C15.3387 3.1836 14.9071 2.25231 14.8138 1.22273V0.800049H13.9056C14.1342 2.10865 14.9139 3.22664 15.996 3.90424ZM6.54759 15.5983C6.18036 15.115 5.98191 14.5239 5.9828 13.9161C5.9828 12.3818 7.2223 11.1377 8.75152 11.1377C9.03651 11.1376 9.3198 11.1814 9.59139 11.2679V7.90822C9.274 7.86457 8.95366 7.84604 8.63346 7.85283V10.4678C8.36166 10.3814 8.07824 10.3374 7.79318 10.3377C6.26396 10.3377 5.02453 11.5816 5.02453 13.1162C5.02453 14.2012 5.64407 15.1406 6.54759 15.5983Z" fill="#FF004F"/>
  <path d="M13.8554 6.41952C15.1419 7.34209 16.7172 7.88496 18.4188 7.88496V5.29823C17.469 5.0952 16.6281 4.59708 15.9959 3.90424C14.9138 3.22657 14.1342 2.10858 13.9056 0.800049H11.5201V13.9256C11.5147 15.4558 10.2773 16.6948 8.75135 16.6948C7.85214 16.6948 7.05329 16.2646 6.54735 15.5983C5.64391 15.1406 5.02436 14.2012 5.02436 13.1163C5.02436 11.5818 6.2638 10.3378 7.79301 10.3378C8.086 10.3378 8.3684 10.3835 8.63329 10.4679V7.8529C5.34934 7.92099 2.70825 10.6138 2.70825 13.9257C2.70825 15.5789 3.36594 17.0776 4.43339 18.1727C5.39638 18.8216 6.55562 19.2001 7.80285 19.2001C11.1456 19.2001 13.8555 16.4805 13.8555 13.1258V6.41952H13.8554Z" fill="black"/>
  <path d="M18.4188 5.29817V4.59874C17.5623 4.60004 16.7226 4.35932 15.996 3.90411C16.6392 4.61089 17.4863 5.09822 18.4188 5.29817ZM13.9056 0.799986C13.8838 0.674926 13.867 0.549042 13.8554 0.422678V0H10.5617V13.1257C10.5564 14.6556 9.3191 15.8946 7.79303 15.8946C7.345 15.8946 6.92199 15.7879 6.54737 15.5983C7.05331 16.2645 7.85216 16.6946 8.75137 16.6946C10.2772 16.6946 11.5148 15.4558 11.5201 13.9256V0.799986H13.9056ZM8.63345 7.85284V7.10824C8.35823 7.07049 8.08076 7.05155 7.80294 7.05169C4.45993 7.05162 1.75 9.77116 1.75 13.1257C1.75 15.2288 2.81505 17.0822 4.43347 18.1725C3.36603 17.0775 2.70834 15.5787 2.70834 13.9255C2.70834 10.6138 5.34936 7.92093 8.63345 7.85284Z" fill="#00F2EA"/>
</svg>