<svg xmlns="http://www.w3.org/2000/svg" width="25" height="24" viewBox="0 0 25 24" fill="none">
  <path fill-rule="evenodd" clip-rule="evenodd" d="M9.55623 1.79169C9.69824 1.60773 9.91751 1.5 10.1499 1.5C11.9941 1.5 14.4336 2.79124 16.3775 5.04087C18.3534 7.32741 19.8999 10.6872 19.8999 15C19.8999 16.9891 19.1097 18.8968 17.7032 20.3033C16.2967 21.7098 14.389 22.5 12.3999 22.5C10.4108 22.5 8.50312 21.7098 7.0966 20.3033C5.69008 18.8968 4.8999 16.9891 4.8999 15C4.8999 13.7413 5.3199 12.5894 5.87228 11.5278C6.29083 10.7235 6.81274 9.92361 7.31447 9.15469C7.46604 8.9224 7.61577 8.69293 7.76025 8.46701C9.0497 6.45079 9.99118 4.60604 9.42433 2.43987C9.3655 2.21504 9.41421 1.97565 9.55623 1.79169ZM11.0658 3.13665C11.2844 5.50951 10.1466 7.51968 9.02393 9.27518C8.86171 9.52883 8.7004 9.77614 8.54191 10.0191C8.04941 10.7743 7.58409 11.4877 7.20292 12.2202C6.70647 13.1743 6.3999 14.079 6.3999 15C6.3999 16.5913 7.03204 18.1174 8.15726 19.2426C8.5436 19.629 8.9772 19.9572 9.44446 20.2216C8.93477 19.4777 8.6499 18.4841 8.6499 17.25C8.6499 15.7416 9.17093 14.6112 9.58749 13.7074C9.59481 13.6916 9.60209 13.6758 9.60934 13.66C10.0462 12.7117 10.2991 12.1038 10.1631 11.3903C10.1213 11.1708 10.1796 10.944 10.3221 10.7719C10.4646 10.5997 10.6764 10.5 10.8999 10.5C11.5954 10.5 12.2695 10.7868 12.8566 11.1878C13.4507 11.5935 14.0084 12.1513 14.4863 12.7831C15.4317 14.0328 16.1499 15.6879 16.1499 17.25C16.1499 18.4841 15.865 19.4777 15.3553 20.2216C15.8226 19.9572 16.2562 19.629 16.6425 19.2426C17.7678 18.1174 18.3999 16.5913 18.3999 15C18.3999 11.0628 16.9933 8.04759 15.2426 6.02163C13.8464 4.40595 12.2798 3.46757 11.0658 3.13665ZM11.6707 12.2218C11.5777 12.9734 11.2716 13.6373 10.9978 14.231C10.9891 14.25 10.9804 14.2688 10.9717 14.2877C10.5479 15.2076 10.1499 16.0797 10.1499 17.25C10.1499 18.4648 10.4844 19.2001 10.8843 19.6262C11.2841 20.0522 11.8244 20.25 12.3999 20.25C12.9754 20.25 13.5157 20.0522 13.9155 19.6262C14.3154 19.2001 14.6499 18.4648 14.6499 17.25C14.6499 16.1069 14.1025 14.762 13.29 13.688C12.8891 13.158 12.4448 12.723 12.0106 12.4264C11.8928 12.346 11.7793 12.2781 11.6707 12.2218Z" fill="currentColor"/>
</svg>